# xmcd CD database file
#
# Track frame offsets:
#	150
#	20542
#	39485
#	60945
#	74562
#	97885
#	120032
#	136597
#	161205
#	180375
#
# Disc length: 2668 seconds
#
# Revision: 0
# Processed by: cddbd v1.5.1PL0 Copyright (c) Steve Scherf et al.
# Submitted via: CDex 1.51
#
DISCID=730a6a0a
DTITLE=オユンナ - 共に生きて NHK「アジア発見」サウンドトラックスペシャル
DYEAR=1996
DGENRE=JPop
TTITLE0=花水木
TTITLE1=ふたりの青い空
TTITLE2=海の声（モンゴル語）
TTITLE3=輝きの地図
TTITLE4=素敵ね
TTITLE5=旅立ちの予感（モンゴル語）
TTITLE6=ともだち
TTITLE7=愛よ夢よ
TTITLE8=今日からのすべて
TTITLE9=共に生きて
EXTD=YEAR: 1996
EXTT0=
EXTT1=
EXTT2=
EXTT3=
EXTT4=
EXTT5=
EXTT6=
EXTT7=
EXTT8=
EXTT9=
PLAYORDER=
